<svg width="1019" height="131" viewBox="0 0 1019 131" fill="none" xmlns="http://www.w3.org/2000/svg">
<path d="M105.539 58.9218L96.75 100.546L0 104.273V82.125L20.039 82.6875L18.1406 23.0625L0 23.625V1.47656L60.8906 3.9375L60.4687 21.7265L40.289 22.5L35.0156 82.9687L87.2578 84.2343L90.8437 58.9218H105.539ZM146.391 108.562C139.875 108.562 134.25 107.578 129.516 105.609C124.828 103.64 120.961 100.968 117.914 97.5937C114.914 94.2187 112.688 90.2812 111.235 85.7812C109.781 81.2812 109.055 76.5 109.055 71.4375C109.055 64.6406 110.227 58.6875 112.57 53.5781C114.961 48.4687 118.172 44.2265 122.203 40.8515C126.281 37.4296 130.992 34.875 136.336 33.1875C141.68 31.5 147.328 30.6562 153.281 30.6562C159.938 30.6562 165.539 31.6406 170.086 33.6093C174.68 35.5781 178.383 38.2265 181.196 41.5546C184.008 44.8359 186.024 48.6328 187.242 52.9453C188.508 57.2109 189.141 61.6875 189.141 66.375C189.141 72.75 188.11 78.539 186.047 83.7422C184.031 88.9453 181.149 93.3984 177.399 97.1015C173.696 100.757 169.196 103.57 163.899 105.539C158.649 107.554 152.813 108.562 146.391 108.562ZM149.414 40.2187C146.93 40.2187 144.75 40.7578 142.875 41.8359C141.047 42.8672 139.453 44.25 138.094 45.9843C136.781 47.6718 135.68 49.5937 134.789 51.75C133.899 53.9062 133.196 56.1093 132.68 58.3593C132.164 60.5625 131.789 62.7187 131.555 64.8281C131.367 66.9375 131.274 68.7656 131.274 70.3125C131.274 72 131.391 73.8984 131.625 76.0078C131.86 78.0703 132.258 80.1562 132.82 82.2656C133.383 84.375 134.133 86.4375 135.07 88.4531C136.008 90.4687 137.18 92.25 138.586 93.7968C139.992 95.3437 141.633 96.5859 143.508 97.5234C145.43 98.4609 147.633 98.9296 150.117 98.9296C152.649 98.9296 154.805 98.4609 156.586 97.5234C158.414 96.5859 159.938 95.3437 161.156 93.7968C162.422 92.25 163.43 90.4922 164.18 88.5234C164.93 86.5546 165.492 84.5625 165.867 82.5468C166.289 80.4843 166.57 78.4922 166.711 76.5703C166.852 74.6484 166.922 72.9375 166.922 71.4375C166.922 69.4218 166.805 67.2422 166.57 64.8984C166.383 62.5546 166.031 60.2343 165.516 57.9375C165.047 55.5937 164.367 53.3672 163.477 51.2578C162.633 49.1015 161.555 47.2265 160.242 45.6328C158.977 43.9922 157.43 42.6796 155.602 41.6953C153.82 40.7109 151.758 40.2187 149.414 40.2187ZM284.203 96.1875L280.617 109.195L245.672 106.593C245.766 105.89 245.883 105.117 246.024 104.273C246.164 103.429 246.305 102.632 246.446 101.882C246.633 101.039 246.797 100.195 246.938 99.3514C242.86 101.601 238.735 103.195 234.563 104.132C230.391 105.07 226.313 105.539 222.328 105.539C219.422 105.539 216.399 105.281 213.258 104.765C210.117 104.25 207.235 103.359 204.61 102.093C202.031 100.781 199.899 99.0703 198.211 96.9609C196.524 94.8046 195.68 92.1093 195.68 88.875C195.68 85.4531 196.453 82.5 198 80.0156C199.547 77.5312 201.586 75.4218 204.117 73.6875C206.649 71.9062 209.508 70.4765 212.696 69.3984C215.93 68.3203 219.188 67.4765 222.469 66.8672C225.797 66.2109 229.031 65.789 232.172 65.6015C235.313 65.3672 238.078 65.25 240.469 65.25C243 65.25 245.274 65.3203 247.289 65.4609C249.305 65.5546 251.11 65.7187 252.703 65.9531C253.266 62.5312 253.547 59.2734 253.547 56.1796C253.547 53.9296 253.242 51.8906 252.633 50.0625C252.07 48.2343 251.063 46.7109 249.61 45.4922C248.203 44.2734 246.305 43.3593 243.914 42.75C241.57 42.1406 238.641 41.9062 235.125 42.0468C232.781 42.2812 230.625 42.9375 228.656 44.0156C227.813 44.4843 226.946 45.0703 226.055 45.7734C225.211 46.4765 224.391 47.3203 223.594 48.3046C222.844 49.289 222.164 50.4609 221.555 51.8203C220.946 53.1328 220.477 54.6328 220.149 56.3203L197.438 57.4453C197.766 54.2109 198.586 51.3515 199.899 48.8672C201.211 46.3359 202.805 44.1562 204.68 42.3281C206.602 40.4531 208.711 38.8593 211.008 37.5468C213.305 36.2343 215.625 35.1328 217.969 34.2422C223.5 32.2265 229.664 30.9843 236.461 30.5156C242.555 30.4218 247.711 31.0078 251.93 32.2734C256.196 33.4922 259.711 35.1562 262.477 37.2656C265.242 39.3281 267.399 41.6718 268.946 44.2968C270.492 46.9218 271.617 49.5468 272.32 52.1718C273.024 54.75 273.422 57.2109 273.516 59.5546C273.61 61.8515 273.633 63.75 273.586 65.25C273.446 67.0781 273.117 69.375 272.602 72.1406C272.18 74.5312 271.547 77.5312 270.703 81.1406C269.906 84.75 268.805 89.0625 267.399 94.0781L284.203 96.1875ZM251.086 75.4453C250.008 75.3515 248.836 75.2812 247.57 75.2343C246.305 75.1875 244.992 75.164 243.633 75.164C242.461 75.164 241.008 75.2109 239.274 75.3046C237.586 75.3984 235.805 75.5859 233.93 75.8672C232.055 76.1015 230.18 76.4531 228.305 76.9218C226.43 77.3906 224.742 78 223.242 78.75C221.789 79.5 220.594 80.414 219.656 81.4922C218.719 82.5703 218.25 83.8359 218.25 85.289C218.25 86.414 218.578 87.4922 219.235 88.5234C219.938 89.5078 220.875 90.3515 222.047 91.0546C223.219 91.7578 224.578 92.2734 226.125 92.6015C227.719 92.8828 229.383 92.8828 231.117 92.6015C234.633 91.9453 237.938 91.1484 241.031 90.2109C244.172 89.2265 246.867 88.289 249.117 87.3984C249.492 85.4296 249.844 83.4375 250.172 81.4218C250.5 79.4062 250.805 77.414 251.086 75.4453ZM384.047 107.718L348.328 106.031L348.469 97.3828C345.656 99.5854 342.727 101.273 339.68 102.445C336.633 103.617 333.844 104.461 331.313 104.976C328.313 105.585 325.383 105.937 322.524 106.031C320.508 106.031 318.235 105.796 315.703 105.328C313.219 104.906 310.664 104.179 308.039 103.148C305.461 102.07 302.906 100.64 300.375 98.8593C297.891 97.0781 295.664 94.8515 293.696 92.1796C291.774 89.5078 290.203 86.3437 288.985 82.6875C287.813 78.9843 287.227 74.7187 287.227 69.8906C287.227 64.9687 287.813 60.6328 288.985 56.8828C290.203 53.0859 291.82 49.8281 293.836 47.1093C295.852 44.3437 298.196 42.0468 300.867 40.2187C303.586 38.3437 306.422 36.8672 309.375 35.789C312.375 34.664 315.422 33.8672 318.516 33.3984C321.61 32.9296 324.586 32.6953 327.446 32.6953C329.977 32.7422 332.531 33 335.11 33.4687C337.313 33.8437 339.656 34.4531 342.141 35.2968C344.672 36.1406 347.063 37.3359 349.313 38.8828L349.735 14.1328L328.008 16.4531L327.446 4.35938L373.922 0L368.719 93.9375H384.047V107.718ZM328.711 43.1015C325.805 43.1015 323.274 43.9218 321.117 45.5625C319.008 47.2031 317.227 49.3125 315.774 51.8906C314.367 54.4218 313.313 57.2578 312.61 60.3984C311.906 63.4922 311.555 66.4922 311.555 69.3984C311.555 72.3046 311.86 75.3281 312.469 78.4687C313.125 81.6093 314.156 84.4922 315.563 87.1172C316.969 89.7422 318.774 91.9218 320.977 93.6562C323.227 95.3437 325.946 96.1875 329.133 96.1875C331.055 96.0937 333.094 95.5546 335.25 94.5703C337.078 93.7734 339.141 92.4843 341.438 90.7031C343.781 88.875 346.172 86.2968 348.61 82.9687L349.172 51.539C346.36 49.4296 343.711 47.8125 341.227 46.6875C338.789 45.5625 336.633 44.7422 334.758 44.2265C332.555 43.6172 330.539 43.2422 328.711 43.1015ZM446.414 88.3125L444.094 106.312L391.641 104.835L389.391 92.039L410.696 90.7031L410.555 50.5546L388.617 49.8515V38.6015L432.844 35.7187L427.5 89.5781L446.414 88.3125ZM432.844 19.1953C432.844 20.3203 432.492 21.3984 431.789 22.4296C431.133 23.414 430.219 24.2812 429.047 25.0312C427.875 25.7812 426.492 26.3906 424.899 26.8593C423.352 27.2812 421.688 27.4922 419.906 27.4922C418.078 27.4922 416.367 27.2812 414.774 26.8593C413.227 26.3906 411.867 25.7812 410.696 25.0312C409.524 24.2812 408.586 23.414 407.883 22.4296C407.227 21.3984 406.899 20.3203 406.899 19.1953C406.899 18.0234 407.227 16.9218 407.883 15.8906C408.586 14.8125 409.524 13.8984 410.696 13.1484C411.867 12.3984 413.227 11.8125 414.774 11.3906C416.367 10.9218 418.078 10.6875 419.906 10.6875C421.688 10.6875 423.352 10.9218 424.899 11.3906C426.492 11.8125 427.875 12.3984 429.047 13.1484C430.219 13.8984 431.133 14.8125 431.789 15.8906C432.492 16.9218 432.844 18.0234 432.844 19.1953ZM501.047 90.7031L499.781 105.89L451.477 105.539V92.7422L466.031 92.1796L465.047 47.9531L450.07 48.375V35.5781L489.516 30.5156L488.531 43.9453C491.953 41.2734 495.328 39.2109 498.656 37.7578C502.031 36.2578 505.055 35.1093 507.727 34.3125C510.867 33.4218 513.867 32.8359 516.727 32.5546C521.367 32.5546 525.305 33.1875 528.539 34.4531C531.82 35.6718 534.469 37.4296 536.485 39.7265C538.547 41.9765 540.047 44.6953 540.985 47.8828C541.922 51.0703 542.391 54.6093 542.391 58.5C542.391 60.1406 542.367 61.5937 542.32 62.8593C542.274 64.125 542.18 65.3672 542.039 66.5859C541.946 67.7578 541.805 69 541.617 70.3125C541.477 71.5781 541.289 73.1015 541.055 74.8828C540.82 76.664 540.539 78.7734 540.211 81.2109C539.93 83.6015 539.602 86.4843 539.227 89.8593L554.203 89.0156L552.164 105.89L514.547 104.414C515.11 98.9296 515.602 94.2187 516.024 90.2812C516.446 86.3437 516.82 82.9922 517.149 80.2265C517.477 77.414 517.735 75.0703 517.922 73.1953C518.11 71.2734 518.274 69.6093 518.414 68.2031C518.555 66.75 518.649 65.4375 518.696 64.2656C518.742 63.0937 518.766 61.8281 518.766 60.4687C518.766 58.3593 518.602 56.3906 518.274 54.5625C517.946 52.6875 517.36 51.0468 516.516 49.6406C515.719 48.2343 514.641 47.1328 513.281 46.3359C511.969 45.4922 510.328 45.0234 508.36 44.9296C506.578 45.164 504.61 45.7265 502.453 46.6172C500.578 47.414 498.375 48.5859 495.844 50.1328C493.36 51.6328 490.617 53.789 487.617 56.6015L485.227 91.4765L501.047 90.7031ZM649.688 43.1015L637.242 44.789C637.242 48.914 637.289 52.9687 637.383 56.9531C637.524 60.9375 637.641 64.8984 637.735 68.8359C637.875 72.7734 637.969 76.7343 638.016 80.7187C638.063 84.6562 638.016 88.664 637.875 92.7422C637.641 98.7422 636.305 104.085 633.867 108.773C631.43 113.461 628.149 117.398 624.024 120.585C619.899 123.82 615.07 126.281 609.539 127.968C604.055 129.656 598.125 130.5 591.75 130.5C587.063 130.5 582.492 129.796 578.039 128.39C573.633 127.031 569.485 125.226 565.594 122.976L571.781 109.335C573.235 110.742 574.805 112.054 576.492 113.273C578.227 114.539 580.008 115.617 581.836 116.507C583.711 117.445 585.633 118.171 587.602 118.687C589.57 119.25 591.539 119.531 593.508 119.531C596.32 119.531 598.805 119.085 600.961 118.195C603.164 117.351 605.086 116.109 606.727 114.468C608.367 112.875 609.75 110.953 610.875 108.703C612.047 106.5 612.985 104.015 613.688 101.25C610.641 102.75 607.43 103.921 604.055 104.765C600.68 105.609 597.305 106.031 593.93 106.031C588.305 106.031 583.313 105.07 578.953 103.148C574.594 101.226 570.891 98.625 567.844 95.3437C564.844 92.0156 562.547 88.1718 560.953 83.8125C559.406 79.4062 558.633 74.7656 558.633 69.8906C558.633 64.0781 559.524 58.875 561.305 54.2812C563.133 49.6875 565.758 45.7968 569.18 42.6093C572.649 39.4218 576.867 36.9843 581.836 35.2968C586.852 33.5625 592.524 32.6953 598.852 32.6953C602.32 32.6953 605.672 33.3281 608.906 34.5937C612.141 35.8593 615.07 37.289 617.696 38.8828C617.742 37.9453 617.766 37.0781 617.766 36.2812C617.813 35.4375 617.86 34.7343 617.906 34.1718C617.953 33.5156 617.977 32.9296 617.977 32.414L649.688 33.8906V43.1015ZM615.797 85.5703C615.938 83.0859 616.078 80.3437 616.219 77.3437C616.36 74.2968 616.5 71.2031 616.641 68.0625C616.781 64.875 616.922 61.6875 617.063 58.5C617.203 55.3125 617.32 52.289 617.414 49.4296C614.742 47.6953 611.883 46.2187 608.836 45C605.789 43.7343 602.883 43.1015 600.117 43.1015C597.961 43.1015 596.039 43.5468 594.352 44.4375C592.711 45.2812 591.258 46.4296 589.992 47.8828C588.727 49.3359 587.649 51 586.758 52.875C585.867 54.7031 585.141 56.6015 584.578 58.5703C584.016 60.4922 583.594 62.414 583.313 64.3359C583.078 66.2109 582.961 67.8984 582.961 69.3984C582.961 70.9922 583.078 72.7734 583.313 74.7422C583.547 76.664 583.922 78.6328 584.438 80.6484C585 82.6172 585.727 84.539 586.617 86.414C587.508 88.2422 588.61 89.8828 589.922 91.3359C591.235 92.789 592.758 93.9609 594.492 94.8515C596.274 95.7422 598.289 96.1875 600.539 96.1875C601.852 96.1875 603.164 95.9765 604.477 95.5546C605.836 95.0859 607.149 94.5 608.414 93.7968C609.727 93.0468 610.969 92.1796 612.141 91.1953C613.36 90.2109 614.531 89.1562 615.656 88.0312C615.656 87.6562 615.656 87.2578 615.656 86.8359C615.656 86.414 615.703 85.9922 615.797 85.5703Z" fill="#3C3B3B"/>
<path d="M762.539 58.9218L753.75 100.546L657 104.273V82.125L677.039 82.6875L675.141 23.0625L657 23.625V1.47656L717.891 3.9375L717.469 21.7265L697.289 22.5L692.016 82.9687L744.258 84.2343L747.844 58.9218H762.539ZM848.742 80.2265C846.961 84.8672 844.477 88.8984 841.289 92.3203C838.149 95.6953 834.586 98.5078 830.602 100.757C826.617 102.961 822.399 104.601 817.946 105.679C813.492 106.757 809.11 107.296 804.797 107.296C798.797 107.296 793.453 106.359 788.766 104.484C784.078 102.609 780.094 100.078 776.813 96.8906C773.531 93.7031 770.953 89.9765 769.078 85.7109C767.25 81.3984 766.196 76.8281 765.914 72C765.914 64.6406 767.133 58.3593 769.57 53.1562C772.055 47.9062 775.406 43.6406 779.625 40.3593C783.891 37.0781 788.86 34.6875 794.531 33.1875C800.203 31.6406 806.227 30.8672 812.602 30.8672C814.946 30.8672 817.36 31.0312 819.844 31.3593C822.375 31.6875 824.836 32.2734 827.227 33.1172C829.617 33.9609 831.891 35.1328 834.047 36.6328C836.25 38.0859 838.219 39.9843 839.953 42.3281C841.735 44.625 843.235 47.3906 844.453 50.625C845.672 53.8593 846.516 57.6796 846.985 62.0859L789.258 72.4218C789.633 75.6562 790.289 78.8203 791.227 81.914C792.211 85.0078 793.524 87.75 795.164 90.1406C796.805 92.4843 798.82 94.3593 801.211 95.7656C803.649 97.125 806.531 97.7578 809.86 97.664C813.469 97.2422 816.656 96.164 819.422 94.4296C820.594 93.6796 821.719 92.7656 822.797 91.6875C823.875 90.5625 824.813 89.2265 825.61 87.6796C826.406 86.1328 826.992 84.3281 827.367 82.2656C827.742 80.2031 827.813 77.8359 827.578 75.164L848.742 80.2265ZM822.094 57.5859C821.906 55.3828 821.508 53.4609 820.899 51.8203C820.289 50.1796 819.516 48.7734 818.578 47.6015C817.688 46.4296 816.68 45.4687 815.555 44.7187C814.477 43.9218 813.375 43.289 812.25 42.8203C809.625 41.7422 806.672 41.25 803.391 41.3437C800.297 41.7187 797.789 42.6093 795.867 44.0156C793.946 45.375 792.446 47.0859 791.367 49.1484C790.336 51.164 789.633 53.414 789.258 55.8984C788.883 58.3828 788.696 60.914 788.696 63.4922L822.094 57.5859ZM932.625 32.2734L925.664 56.1796C923.367 54.9609 920.813 53.7656 918 52.5937C915.188 51.4218 912.281 50.3906 909.281 49.5C906.328 48.6093 903.352 47.9062 900.352 47.3906C897.399 46.8281 894.61 46.5468 891.985 46.5468C888.328 46.5468 885.352 47.1093 883.055 48.2343C880.758 49.3125 879.61 50.9062 879.61 53.0156C879.61 54.375 880.125 55.5468 881.156 56.5312C882.188 57.4687 883.735 58.3593 885.797 59.2031C887.906 60.0468 890.531 60.8672 893.672 61.664C896.86 62.4609 900.563 63.375 904.781 64.4062C908.578 65.2968 912.141 66.3046 915.469 67.4296C918.797 68.5078 921.68 69.8906 924.117 71.5781C926.555 73.2656 928.477 75.3281 929.883 77.7656C931.289 80.2031 931.992 83.1796 931.992 86.6953C931.992 90.4453 931.196 93.6093 929.602 96.1875C928.055 98.7656 925.875 100.875 923.063 102.515C920.25 104.109 916.922 105.257 913.078 105.961C909.281 106.664 905.133 107.015 900.633 107.015C895.149 107.015 890.438 106.593 886.5 105.75C882.61 104.906 879.375 103.992 876.797 103.007C874.266 101.976 872.32 101.039 870.961 100.195C869.649 99.3514 868.828 98.9296 868.5 98.9296L867.094 110.32L852.258 105.257L860.274 82.4062C861.727 83.3437 863.485 84.3281 865.547 85.3593C867.61 86.3906 869.813 87.4218 872.156 88.4531C874.5 89.4843 876.938 90.4922 879.469 91.4765C882.047 92.414 884.578 93.2578 887.063 94.0078C889.547 94.7109 891.914 95.2734 894.164 95.6953C896.414 96.1172 898.43 96.3281 900.211 96.3281C901.055 96.3281 901.992 96.2578 903.024 96.1172C904.055 95.9765 905.016 95.7187 905.906 95.3437C906.844 94.9218 907.617 94.3593 908.227 93.6562C908.836 92.9062 909.141 91.9218 909.141 90.7031C909.141 89.2031 908.602 87.914 907.524 86.8359C906.446 85.7109 905.133 84.75 903.586 83.9531C902.039 83.1562 900.375 82.5 898.594 81.9843C896.86 81.4218 895.289 80.9296 893.883 80.5078C891.633 79.8984 889.149 79.1953 886.43 78.3984C883.711 77.5546 880.946 76.5937 878.133 75.5156C875.32 74.3906 872.602 73.125 869.977 71.7187C867.352 70.3125 865.008 68.6953 862.946 66.8672C860.883 65.039 859.219 63 857.953 60.75C856.735 58.5 856.125 55.9687 856.125 53.1562C856.125 50.2968 856.805 47.6015 858.164 45.0703C859.524 42.4922 861.492 40.2422 864.07 38.3203C866.696 36.3984 869.906 34.875 873.703 33.75C877.547 32.5781 881.906 31.9922 886.781 31.9922C891.375 31.9922 895.57 32.4375 899.367 33.3281C903.211 34.2187 906.539 35.2031 909.352 36.2812C912.633 37.5 915.586 38.9062 918.211 40.5L917.93 29.3906L932.625 32.2734ZM1018.41 32.2734L1011.45 56.1796C1009.15 54.9609 1006.6 53.7656 1003.78 52.5937C1000.97 51.4218 998.063 50.3906 995.063 49.5C992.11 48.6093 989.133 47.9062 986.133 47.3906C983.18 46.8281 980.391 46.5468 977.766 46.5468C974.11 46.5468 971.133 47.1093 968.836 48.2343C966.539 49.3125 965.391 50.9062 965.391 53.0156C965.391 54.375 965.906 55.5468 966.938 56.5312C967.969 57.4687 969.516 58.3593 971.578 59.2031C973.688 60.0468 976.313 60.8672 979.453 61.664C982.641 62.4609 986.344 63.375 990.563 64.4062C994.36 65.2968 997.922 66.3046 1001.25 67.4296C1004.58 68.5078 1007.46 69.8906 1009.9 71.5781C1012.34 73.2656 1014.26 75.3281 1015.67 77.7656C1017.07 80.2031 1017.78 83.1796 1017.78 86.6953C1017.78 90.4453 1016.98 93.6093 1015.39 96.1875C1013.84 98.7656 1011.66 100.875 1008.85 102.515C1006.03 104.109 1002.71 105.257 998.86 105.961C995.063 106.664 990.914 107.015 986.414 107.015C980.93 107.015 976.219 106.593 972.281 105.75C968.391 104.906 965.156 103.992 962.578 103.007C960.047 101.976 958.102 101.039 956.742 100.195C955.43 99.3514 954.61 98.9296 954.281 98.9296L952.875 110.32L938.039 105.257L946.055 82.4062C947.508 83.3437 949.266 84.3281 951.328 85.3593C953.391 86.3906 955.594 87.4218 957.938 88.4531C960.281 89.4843 962.719 90.4922 965.25 91.4765C967.828 92.414 970.36 93.2578 972.844 94.0078C975.328 94.7109 977.696 95.2734 979.946 95.6953C982.196 96.1172 984.211 96.3281 985.992 96.3281C986.836 96.3281 987.774 96.2578 988.805 96.1172C989.836 95.9765 990.797 95.7187 991.688 95.3437C992.625 94.9218 993.399 94.3593 994.008 93.6562C994.617 92.9062 994.922 91.9218 994.922 90.7031C994.922 89.2031 994.383 87.914 993.305 86.8359C992.227 85.7109 990.914 84.75 989.367 83.9531C987.82 83.1562 986.156 82.5 984.375 81.9843C982.641 81.4218 981.07 80.9296 979.664 80.5078C977.414 79.8984 974.93 79.1953 972.211 78.3984C969.492 77.5546 966.727 76.5937 963.914 75.5156C961.102 74.3906 958.383 73.125 955.758 71.7187C953.133 70.3125 950.789 68.6953 948.727 66.8672C946.664 65.039 945 63 943.735 60.75C942.516 58.5 941.906 55.9687 941.906 53.1562C941.906 50.2968 942.586 47.6015 943.946 45.0703C945.305 42.4922 947.274 40.2422 949.852 38.3203C952.477 36.3984 955.688 34.875 959.485 33.75C963.328 32.5781 967.688 31.9922 972.563 31.9922C977.156 31.9922 981.352 32.4375 985.149 33.3281C988.992 34.2187 992.32 35.2031 995.133 36.2812C998.414 37.5 1001.37 38.9062 1003.99 40.5L1003.71 29.3906L1018.41 32.2734Z" fill="#FF6610"/>
</svg>
